<svg version="1.1" xmlns="http://www.w3.org/2000/svg" xmlns:xlink="http://www.w3.org/1999/xlink" width="61.66389" height="68.38185" viewBox="0,0,61.66389,68.38185"><defs><linearGradient x1="209.16806" y1="178.75261" x2="270.83195" y2="178.75261" gradientUnits="userSpaceOnUse" id="color-1"><stop offset="0" stop-color="#04da00"/><stop offset="1" stop-color="#6aff00"/></linearGradient><linearGradient x1="209.19571" y1="184.33654" x2="224.70588" y2="184.33654" gradientUnits="userSpaceOnUse" id="color-2"><stop offset="0" stop-color="#12b100"/><stop offset="1" stop-color="#48f300"/></linearGradient><linearGradient x1="209.19571" y1="184.33654" x2="224.70588" y2="184.33654" gradientUnits="userSpaceOnUse" id="color-3"><stop offset="0" stop-color="#0a9a00"/><stop offset="1" stop-color="#ffffff"/></linearGradient><linearGradient x1="210.01094" y1="203.15103" x2="240.21094" y2="203.15103" gradientUnits="userSpaceOnUse" id="color-4"><stop offset="0" stop-color="#1ec000"/><stop offset="1" stop-color="#136800"/></linearGradient><linearGradient x1="247.6776" y1="174.31771" x2="247.6776" y2="214.31771" gradientUnits="userSpaceOnUse" id="color-5"><stop offset="0" stop-color="#41ea00"/><stop offset="1" stop-color="#168300"/></linearGradient><linearGradient x1="209.25911" y1="168.92587" x2="255.75911" y2="168.92587" gradientUnits="userSpaceOnUse" id="color-6"><stop offset="0" stop-color="#3ae200"/><stop offset="1" stop-color="#22c500"/></linearGradient><linearGradient x1="255.4167" y1="156.62288" x2="249.03857" y2="170.76094" gradientUnits="userSpaceOnUse" id="color-7"><stop offset="0" stop-color="#12b100"/><stop offset="1" stop-color="#48f300"/></linearGradient><linearGradient x1="255.4167" y1="156.62288" x2="249.03857" y2="170.76094" gradientUnits="userSpaceOnUse" id="color-8"><stop offset="0" stop-color="#0a9a00"/><stop offset="1" stop-color="#ffffff"/></linearGradient><linearGradient x1="272.80295" y1="164.96007" x2="260.38403" y2="192.48842" gradientUnits="userSpaceOnUse" id="color-9"><stop offset="0" stop-color="#1ec000"/><stop offset="1" stop-color="#136800"/></linearGradient></defs><g transform="translate(-209.16805,-145.80907)"><g data-paper-data="{&quot;isPaintingLayer&quot;:true}" fill-rule="nonzero" stroke-linejoin="miter" stroke-miterlimit="10" stroke-dasharray="" stroke-dashoffset="0" style="mix-blend-mode: normal"><g stroke-width="0" stroke-linecap="round"><path d="M270.83195,197.44842l-30.49591,16.74251l-31.16798,-14.51018v-31.81077l29.57844,-22.0609l31.81077,19.82857z" fill="url(#color-1)" stroke="#5bff00"/><path d="M209.44998,199.97386l-0.25426,-31.27459l15.51016,23.64664z" fill="url(#color-2)" stroke="url(#color-3)"/><path d="M224.61094,192.35103l15.6,21.6l-30.2,-14.2z" fill="url(#color-4)" stroke="#000000"/><path d="M224.77761,192.31771l31.2,-18l14.6,23.16667l-30.26667,16.5z" fill="url(#color-5)" stroke="#000000"/><path d="M224.42578,191.92587l-15.16667,-24l29.83333,-22l16.66667,28.5z" fill="url(#color-6)" stroke="#000000"/><path d="M255.9108,174.19741l-15.74804,-26.86209l29.83189,18.80687z" data-paper-data="{&quot;index&quot;:null}" fill="url(#color-7)" stroke="url(#color-8)"/><path d="M269.84658,166.2762l0.66773,30.79629l-14.13122,-22.67378z" data-paper-data="{&quot;index&quot;:null}" fill="url(#color-9)" stroke="#000000"/></g><text transform="translate(219.01001,194.26784) scale(0.95496,0.95496)" font-size="40" xml:space="preserve" fill="#ffffff" fill-rule="nonzero" stroke="none" stroke-width="1" stroke-linecap="butt" stroke-linejoin="miter" stroke-miterlimit="10" stroke-dasharray="" stroke-dashoffset="0" font-family="Sans Serif" font-weight="normal" text-anchor="start" style="mix-blend-mode: normal"><tspan x="0" dy="0">TL</tspan></text></g></g></svg>